<svg xmlns="http://www.w3.org/2000/svg" viewBox="0 0 39.67 72.48"><defs><style>.cls-1{font-size:52px;fill:#3f3f3f;font-family:Futura-Bold, Futura;font-weight:700;}.cls-2{fill:#333;}.cls-3{fill:#62b3ef;}</style></defs><title>logo-monogram</title><g id="Layer_2" data-name="Layer 2"><g id="logo-monogram"><text class="cls-1" transform="translate(12 45.6)">f</text><polygon class="cls-2" points="12.33 58.48 10.76 58.48 10.76 62.98 12.33 58.48"/><polygon class="cls-2" points="15.5 58.48 10.76 72.06 10.76 72.48 12.94 72.48 17.83 58.48 15.5 58.48"/><polygon class="cls-2" points="20.99 58.48 16.11 72.48 18.64 72.48 23.53 58.48 20.99 58.48"/><polygon class="cls-2" points="39.67 72.48 39.67 69.14 38.5 72.48 39.67 72.48"/><polygon class="cls-2" points="26.69 58.48 21.81 72.48 24.14 72.48 29.02 58.48 26.69 58.48"/><polygon class="cls-2" points="37.69 58.48 32.8 72.48 35.34 72.48 39.67 60.07 39.67 58.48 37.69 58.48"/><polygon class="cls-2" points="32.19 58.48 27.3 72.48 29.63 72.48 34.52 58.48 32.19 58.48"/><polygon class="cls-3" points="11.43 62.98 11.43 58.48 11.05 58.48 9.46 58.48 8.19 58.48 6.61 58.48 5.44 58.48 0 58.48 0 72.48 5.74 72.48 7.01 72.48 8.6 72.48 9.77 72.48 11.36 72.48 11.43 72.48 11.43 72.06 11.43 62.98"/></g></g></svg>