<svg xmlns="http://www.w3.org/2000/svg" viewBox="0 0 27.43 47.17"><defs><style>.cls-1{font-size:34px;fill:#3f3f3f;font-family:Futura-Bold, Futura;font-weight:700;}.cls-2{fill:#333;}.cls-3{fill:#62b3ef;}</style></defs><title>logo-monogram-small</title><g id="Layer_2" data-name="Layer 2"><g id="logo-monagram-small"><text class="cls-1" transform="translate(8.59 29.81)">f</text><polygon class="cls-2" points="8.53 38.47 7.44 38.47 7.44 41.27 8.53 38.47"/><polygon class="cls-2" points="10.72 38.47 7.44 46.91 7.44 47.17 8.95 47.17 12.33 38.47 10.72 38.47"/><polygon class="cls-2" points="14.52 38.47 11.14 47.17 12.89 47.17 16.27 38.47 14.52 38.47"/><polygon class="cls-2" points="27.43 47.17 27.43 45.1 26.63 47.17 27.43 47.17"/><polygon class="cls-2" points="18.46 38.47 15.08 47.17 16.69 47.17 20.07 38.47 18.46 38.47"/><polygon class="cls-2" points="26.06 38.47 22.68 47.17 24.43 47.17 27.43 39.45 27.43 38.47 26.06 38.47"/><polygon class="cls-2" points="22.26 38.47 18.88 47.17 20.49 47.17 23.87 38.47 22.26 38.47"/><polygon class="cls-3" points="7.9 41.27 7.9 38.47 7.64 38.47 6.54 38.47 5.67 38.47 4.57 38.47 3.76 38.47 0 38.47 0 47.17 3.97 47.17 4.85 47.17 5.95 47.17 6.75 47.17 7.85 47.17 7.9 47.17 7.9 46.91 7.9 41.27"/></g></g></svg>