<svg xmlns="http://www.w3.org/2000/svg" viewBox="0 0 118.25 49.44"><defs><style>.cls-1,.cls-3{fill:#333;}.cls-2{fill:#62b3ef;}.cls-3{font-size:26px;font-family:Futura-Bold, Futura;font-weight:700;}.cls-4{letter-spacing:0.01em;}.cls-5{letter-spacing:0em;}</style></defs><title>logo-small</title><g id="Layer_2" data-name="Layer 2"><g id="logo-small"><polygon class="cls-1" points="55.74 38.27 52.14 38.27 52.14 41.87 55.74 38.27"/><polygon class="cls-1" points="62.98 38.27 52.14 49.11 52.14 49.44 57.13 49.44 68.31 38.27 62.98 38.27"/><polygon class="cls-1" points="75.55 38.27 64.38 49.44 70.17 49.44 81.34 38.27 75.55 38.27"/><polygon class="cls-1" points="118.25 49.44 118.25 46.78 115.59 49.44 118.25 49.44"/><polygon class="cls-1" points="88.58 38.27 77.41 49.44 82.74 49.44 93.91 38.27 88.58 38.27"/><polygon class="cls-1" points="113.72 38.27 102.55 49.44 108.34 49.44 118.25 39.54 118.25 38.27 113.72 38.27"/><polygon class="cls-1" points="101.15 38.27 89.98 49.44 95.31 49.44 106.48 38.27 101.15 38.27"/><polygon class="cls-2" points="52.14 41.87 52.14 38.27 50.41 38.27 43.17 38.27 37.37 38.27 30.13 38.27 24.8 38.27 0 38.27 0 49.44 26.2 49.44 31.99 49.44 39.24 49.44 44.56 49.44 51.81 49.44 52.14 49.44 52.14 49.11 52.14 41.87"/><text class="cls-3" transform="translate(1.37 22.8)"><tspan class="cls-4">f</tspan><tspan x="10.4" y="0">o</tspan><tspan class="cls-5" x="28.6" y="0">r</tspan><tspan x="40.71" y="0">mosa</tspan></text></g></g></svg>