<svg xmlns="http://www.w3.org/2000/svg" viewBox="0 0 232.33 87.88"><defs><style>.cls-1{fill:#333;}.cls-2{fill:#62b3ef;}.cls-3{font-size:52px;fill:#3f3f3f;font-family:Futura-Bold, Futura;font-weight:700;}.cls-4{letter-spacing:0.01em;}.cls-5{letter-spacing:0em;}.cls-6{letter-spacing:0em;}</style></defs><title>logo</title><g id="Layer_2" data-name="Layer 2"><g id="logo"><polygon class="cls-1" points="106.97 69.88 100.21 69.88 100.21 75.67 106.97 69.88"/><polygon class="cls-1" points="120.58 69.88 100.21 87.33 100.21 87.88 109.59 87.88 130.59 69.88 120.58 69.88"/><polygon class="cls-1" points="144.2 69.88 123.2 87.88 134.09 87.88 155.09 69.88 144.2 69.88"/><polygon class="cls-1" points="224.46 87.88 224.46 83.58 219.45 87.88 224.46 87.88"/><polygon class="cls-1" points="168.7 69.88 147.7 87.88 157.72 87.88 178.72 69.88 168.7 69.88"/><polygon class="cls-1" points="215.95 69.88 194.95 87.88 205.84 87.88 224.46 71.92 224.46 69.88 215.95 69.88"/><polygon class="cls-1" points="192.33 69.88 171.33 87.88 181.34 87.88 202.34 69.88 192.33 69.88"/><polygon class="cls-2" points="100.21 75.67 100.21 69.88 96.95 69.88 83.34 69.88 72.45 69.88 58.84 69.88 48.83 69.88 2.21 69.88 2.21 87.88 51.45 87.88 62.34 87.88 75.95 87.88 85.97 87.88 99.58 87.88 100.21 87.88 100.21 87.33 100.21 75.67"/><text class="cls-3" transform="translate(0 45.6)"><tspan class="cls-4">f</tspan><tspan x="20.8" y="0">o</tspan><tspan class="cls-5" x="57.2" y="0">r</tspan><tspan class="cls-6" x="81.43" y="0">mosa</tspan></text></g></g></svg>