<svg xmlns="http://www.w3.org/2000/svg" viewBox="0 0 116.03 115.38"><defs><style>.cls-1{fill:#f2f4f8;}</style></defs><title>paint-roller</title><g id="Layer_2" data-name="Layer 2"><g id="Layer_1-2" data-name="Layer 1"><path class="cls-1" d="M113.53,100.75,93.14,80.37a1.37,1.37,0,0,0-1.89,0l-3.7,3.7L82.88,79.4A7.8,7.8,0,0,1,82.3,69c18.75-23.29,21.06-52.7,5.37-68.39a2,2,0,0,0-2.83,0L81.2,4.23A2,2,0,0,0,84,7.06l2.18-2.18c12.7,14.58,9.87,40.61-7,61.59a11.79,11.79,0,0,0,.86,15.76l4.67,4.67L81,90.6a1.34,1.34,0,0,0,0,1.89l20.39,20.39a8.57,8.57,0,1,0,12.12-12.12Z"/><path class="cls-1" d="M85.17,16.34,72.32,3.49a6.14,6.14,0,0,0-8.68,0L51.26,15.88a1.29,1.29,0,0,0-.17.12L4,62.54a13.57,13.57,0,0,0-4,9.59v13a6.2,6.2,0,1,0,12.39,0V79.92l4.6,4.6a6.09,6.09,0,0,0,3.34,1.7V106a7.15,7.15,0,0,0,14.29,0V75.56l5.18-5.18a7.07,7.07,0,0,0,13.57-2.8V56.81L85.17,25A6.14,6.14,0,0,0,85.17,16.34ZM61.56,12.9,50.7,23.76V67.58a4.39,4.39,0,0,1-5.25,4.32l-.3-.08a4.34,4.34,0,0,1-.48-.15c-.13-.05-.24-.12-.36-.18s-.23-.12-.34-.19a4.39,4.39,0,0,1-.39-.28l-.23-.19a4.4,4.4,0,0,1-.38-.4l-.13-.16a4.39,4.39,0,0,1-.34-.51l-.06-.12a4.34,4.34,0,0,1-.28-.62l0-.06a4.33,4.33,0,0,1-.18-.73h0a4.35,4.35,0,0,1-.07-.65V53.5a5,5,0,0,0-9.94,0V106a4.48,4.48,0,0,1-9,0V76.89a6.64,6.64,0,0,0-13.27,0v8.25a3.53,3.53,0,1,1-7.05,0v-13A10.62,10.62,0,0,1,2.73,71v0a10.77,10.77,0,0,1,.18-1.1h0a10.88,10.88,0,0,1,3-5.43l31-30.63L59.67,11a1.34,1.34,0,0,1,1.89,1.89Z"/></g></g></svg>